<?xml version="1.0" encoding="UTF-8"?>
<svg id="Layer_2" data-name="Layer 2" xmlns="http://www.w3.org/2000/svg" viewBox="0 0 318.64 155.67">
  <defs>
    <style>
      .cls-1 {
        fill: #231f20;
      }
    </style>
  </defs>
  <g id="Layer_1-2" data-name="Layer 1">
    <g>
      <path class="cls-1" d="M178.6,0l-56.72,121.08c-4.91,10.33-15.33,16.92-26.77,16.92h-1.66c-12.16,0-21.26-.94-27.3-2.83-6.04-1.89-11.25-5.1-15.63-9.63-4.38-4.53-7.83-11.03-10.37-19.48-2.53-8.46-3.79-17.9-3.79-28.32s1.27-19.82,3.79-28.21c2.53-8.38,5.99-14.84,10.37-19.37,4.38-4.53,9.59-7.76,15.63-9.69,6.04-1.93,15.14-2.89,27.3-2.89h13.42v-.02h33.63S140.03.02,140.03.02h-57.44C55.4.02,34.83,6.59,20.9,19.73S0,52.2,0,77.73s6.99,44.9,20.96,58.11c13.97,13.22,34.51,19.82,61.63,19.82h35.1c13.23,0,24.85-8.77,28.49-21.48L183.75,0h-5.14Z"/>
      <path class="cls-1" d="M139.17,0c.52,0,1,.3,1.22.78l56.36,120.3c4.91,10.33,15.33,16.92,26.77,16.92h1.66c12.16,0,21.26-.94,27.3-2.83,6.04-1.89,11.25-5.1,15.63-9.63,4.38-4.53,7.83-11.03,10.37-19.48,2.53-8.46,3.79-17.9,3.79-28.32s-1.27-19.82-3.79-28.21c-2.53-8.38-5.99-14.84-10.37-19.37-4.38-4.53-9.59-7.76-15.63-9.69-6.04-1.93-15.14-2.89-27.3-2.89h-13.42v-.02h-33.63s.44-16.23.44-16.23c.02-.73.62-1.31,1.35-1.31h56.13c27.19,0,47.75,6.57,61.68,19.71,13.93,13.14,20.9,32.47,20.9,58s-6.99,44.9-20.96,58.11c-13.97,13.22-34.51,19.82-61.63,19.82h-35.1c-13.23,0-24.85-8.77-28.49-21.48L135.37,1.71C135.13.85,135.77,0,136.67,0h2.51Z"/>
    </g>
  </g>
</svg>